M48
; DRILL file {KiCad 8.0.1} date 2024-04-29T10:33:48+0200
; FORMAT={-:-/ absolute / inch / decimal}
; #@! TF.CreationDate,2024-04-29T10:33:48+02:00
; #@! TF.GenerationSoftware,Kicad,Pcbnew,8.0.1
; #@! TF.FileFunction,Plated,1,2,PTH
FMAT,2
INCH
; #@! TA.AperFunction,Plated,PTH,ViaDrill
T1C0.0118
; #@! TA.AperFunction,Plated,PTH,ComponentDrill
T2C0.0197
; #@! TA.AperFunction,Plated,PTH,ComponentDrill
T3C0.0236
; #@! TA.AperFunction,Plated,PTH,ComponentDrill
T4C0.0394
; #@! TA.AperFunction,Plated,PTH,ComponentDrill
T5C0.0433
; #@! TA.AperFunction,Plated,PTH,ComponentDrill
T6C0.1260
%
G90
G05
T1
X4.189Y-3.5512
X4.1892Y-3.5059
X4.2835Y-3.6378
X4.2835Y-3.6713
X4.2854Y-3.4154
X4.2854Y-3.4488
X4.4173Y-3.8346
X4.4193Y-4.1358
X4.4331Y-3.1457
X4.4823Y-3.4921
X4.4823Y-3.6102
X4.5354Y-2.7165
X4.5413Y-3.3819
X4.5472Y-4.2421
X4.7185Y-3.3683
X4.7756Y-3.1457
X4.7953Y-4.3228
X4.7972Y-3.3683
X5.0709Y-3.6811
X5.1398Y-2.5886
X5.185Y-3.5453
X5.2756Y-3.4882
X5.2756Y-3.7874
X5.3248Y-3.5709
X5.3287Y-3.0591
X5.3701Y-3.4547
X5.3839Y-2.9449
X5.4154Y-3.2106
X5.4154Y-3.4331
X5.4449Y-3.1004
X5.4724Y-3.3701
X5.5276Y-3.4961
X5.5276Y-3.561
X5.5335Y-3.4213
X5.628Y-3.4331
X5.6594Y-3.4331
X5.6693Y-3.5315
X5.6909Y-3.4331
X5.7579Y-3.5276
X5.7972Y-3.2992
X5.7972Y-3.3268
X5.7992Y-4.2323
X5.811Y-3.0925
X5.9Y-4.2323
X5.9016Y-3.0886
X5.9134Y-3.4331
X5.9232Y-3.498
X5.9843Y-3.4646
X6.1988Y-3.4213
X6.1988Y-3.5787
X6.3937Y-3.1752
X6.4173Y-3.624
X6.4606Y-3.7067
X6.5768Y-3.2106
X6.6102Y-3.5079
X6.6102Y-3.5807
X6.6516Y-3.8228
X6.6594Y-3.7067
X6.752Y-3.5827
X6.8425Y-3.8602
X7.0945Y-2.9291
X7.0945Y-3.313
T2
X4.0394Y-2.5591
X4.0394Y-4.5276
X4.067Y-2.4922
X4.067Y-2.6259
X4.067Y-4.4607
X4.067Y-4.5944
X4.1339Y-2.4646
X4.1339Y-2.6535
X4.1339Y-4.4331
X4.1339Y-4.622
X4.2007Y-2.4922
X4.2007Y-2.6259
X4.2007Y-4.4607
X4.2007Y-4.5944
X4.2283Y-2.5591
X4.2283Y-4.5276
X7.189Y-2.5591
X7.189Y-4.5276
X7.2167Y-2.4922
X7.2167Y-2.6259
X7.2167Y-4.4607
X7.2167Y-4.5944
X7.2835Y-2.4646
X7.2835Y-2.6535
X7.2835Y-4.4331
X7.2835Y-4.622
X7.3503Y-2.4922
X7.3503Y-2.6259
X7.3503Y-4.4607
X7.3503Y-4.5944
X7.378Y-2.5591
X7.378Y-4.5276
T4
X4.0472Y-2.9291
X4.0472Y-3.0291
X4.6Y-4.6
X4.7Y-4.6
X5.0Y-4.6
X5.1Y-4.6
X5.2Y-4.6
X5.3Y-4.6
X5.6Y-4.6
X5.7Y-4.6
X5.8Y-2.5
X5.8Y-4.6
X5.9Y-2.5
X5.9Y-4.6
X6.2Y-4.6
X6.3Y-4.6
X6.4Y-2.5
X6.5Y-2.5
X6.6Y-2.5
X6.6Y-4.6
X6.7Y-2.5
X6.7Y-4.6
X6.8Y-2.5
X6.8Y-4.6
X6.9Y-2.5
X6.9Y-4.6
X7.3Y-2.9
X7.3Y-3.0
X7.3Y-3.1
X7.3Y-3.4
X7.3Y-3.5
X7.3Y-3.6
X7.3Y-3.9
X7.3Y-4.0
X7.3Y-4.1
T5
X4.0236Y-3.9055
X4.0236Y-4.0827
X4.2795Y-3.9055
X4.2795Y-4.0827
X4.4693Y-2.5472
X4.5693Y-2.5472
X4.6693Y-2.5472
T6
X4.1339Y-2.5591
X4.1339Y-4.5276
X7.2835Y-2.5591
X7.2835Y-4.5276
T3
G00X4.0679Y-3.3732
M15
G01X4.0364Y-3.3732
M16
G05
G00X4.0679Y-3.7134
M15
G01X4.0364Y-3.7134
M16
G05
G00X4.2392Y-3.3732
M15
G01X4.1959Y-3.3732
M16
G05
G00X4.2392Y-3.7134
M15
G01X4.1959Y-3.7134
M16
G05
M30
