%TF.GenerationSoftware,KiCad,Pcbnew,8.0.1*%
%TF.CreationDate,2024-04-29T10:33:51+02:00*%
%TF.ProjectId,PCB_SMD_Hotplate,5043425f-534d-4445-9f48-6f74706c6174,rev?*%
%TF.SameCoordinates,Original*%
%TF.FileFunction,Soldermask,Bot*%
%TF.FilePolarity,Negative*%
%FSLAX46Y46*%
G04 Gerber Fmt 4.6, Leading zero omitted, Abs format (unit mm)*
G04 Created by KiCad (PCBNEW 8.0.1) date 2024-04-29 10:33:51*
%MOMM*%
%LPD*%
G01*
G04 APERTURE LIST*
%ADD10R,1.700000X1.700000*%
%ADD11O,1.700000X1.700000*%
%ADD12C,0.800000*%
%ADD13C,6.400000*%
%ADD14R,1.905000X2.000000*%
%ADD15O,1.905000X2.000000*%
%ADD16C,2.000000*%
%ADD17C,0.650000*%
%ADD18O,2.100000X1.000000*%
%ADD19O,1.800000X1.000000*%
G04 APERTURE END LIST*
D10*
%TO.C,J5*%
X149860000Y-63500000D03*
D11*
X147320000Y-63500000D03*
%TD*%
D12*
%TO.C,H3*%
X102600000Y-115000000D03*
X103302944Y-113302944D03*
X103302944Y-116697056D03*
X105000000Y-112600000D03*
D13*
X105000000Y-115000000D03*
D12*
X105000000Y-117400000D03*
X106697056Y-113302944D03*
X106697056Y-116697056D03*
X107400000Y-115000000D03*
%TD*%
D10*
%TO.C,J8*%
X157480000Y-116840000D03*
D11*
X160020000Y-116840000D03*
%TD*%
D12*
%TO.C,H4*%
X182600000Y-115000000D03*
X183302944Y-113302944D03*
X183302944Y-116697056D03*
X185000000Y-112600000D03*
D13*
X185000000Y-115000000D03*
D12*
X185000000Y-117400000D03*
X186697056Y-113302944D03*
X186697056Y-116697056D03*
X187400000Y-115000000D03*
%TD*%
D10*
%TO.C,J1*%
X102800000Y-74400000D03*
D11*
X102800000Y-76940000D03*
%TD*%
D10*
%TO.C,J4*%
X127000000Y-116840000D03*
D11*
X129540000Y-116840000D03*
X132080000Y-116840000D03*
X134620000Y-116840000D03*
%TD*%
D10*
%TO.C,J3*%
X185420000Y-104140000D03*
D11*
X185420000Y-101600000D03*
X185420000Y-99060000D03*
%TD*%
D10*
%TO.C,J7*%
X142240000Y-116840000D03*
D11*
X144780000Y-116840000D03*
X147320000Y-116840000D03*
X149860000Y-116840000D03*
%TD*%
D12*
%TO.C,H1*%
X102600000Y-65000000D03*
X103302944Y-63302944D03*
X103302944Y-66697056D03*
X105000000Y-62600000D03*
D13*
X105000000Y-65000000D03*
D12*
X105000000Y-67400000D03*
X106697056Y-63302944D03*
X106697056Y-66697056D03*
X107400000Y-65000000D03*
%TD*%
D10*
%TO.C,J11*%
X185420000Y-91440000D03*
D11*
X185420000Y-88900000D03*
X185420000Y-86360000D03*
%TD*%
D10*
%TO.C,J12*%
X167640000Y-116840000D03*
D11*
X170180000Y-116840000D03*
X172720000Y-116840000D03*
X175260000Y-116840000D03*
%TD*%
D14*
%TO.C,U1*%
X113520000Y-64700000D03*
D15*
X116060000Y-64700000D03*
X118600000Y-64700000D03*
%TD*%
D16*
%TO.C,SW1*%
X102200000Y-99200000D03*
X108700000Y-99200000D03*
X102200000Y-103700000D03*
X108700000Y-103700000D03*
%TD*%
D12*
%TO.C,H2*%
X182600000Y-65000000D03*
X183302944Y-63302944D03*
X183302944Y-66697056D03*
X185000000Y-62600000D03*
D13*
X185000000Y-65000000D03*
D12*
X185000000Y-67400000D03*
X186697056Y-63302944D03*
X186697056Y-66697056D03*
X187400000Y-65000000D03*
%TD*%
D10*
%TO.C,J9*%
X175260000Y-63500000D03*
D11*
X172720000Y-63500000D03*
X170180000Y-63500000D03*
X167640000Y-63500000D03*
X165100000Y-63500000D03*
X162560000Y-63500000D03*
%TD*%
D10*
%TO.C,J6*%
X116840000Y-116840000D03*
D11*
X119380000Y-116840000D03*
%TD*%
D17*
%TO.C,J2*%
X106605000Y-87110000D03*
X106605000Y-92890000D03*
D18*
X107125000Y-85680000D03*
D19*
X102925000Y-85680000D03*
D18*
X107125000Y-94320000D03*
D19*
X102925000Y-94320000D03*
%TD*%
D10*
%TO.C,J10*%
X185420000Y-78740000D03*
D11*
X185420000Y-76200000D03*
X185420000Y-73660000D03*
%TD*%
M02*
